REM DIRINDEX 1\6,1\2\7,1\2\8,1\2\9,1\3\10,1\3\11,1\4\12,1\4\13,1\4\14,1\5\15,1\5\16,1\5\17
REM DIRNAME folder01,folder02,folder03,folder04,folder05,folder06,folder07,folder08,folder09,folder10,folder11,folder12,folder13,folder14,folder15,folder16,folder17
TITLE ""
FILE "P2Q_t_0529-0546.mp3" MP3
  TRACK 01 AUDIO
    TITLE "10:cjc040_2710"
    INDEX 01 00:00:00
  TRACK 02 AUDIO
    TITLE "0:"
    INDEX 01 00:01:03
  TRACK 03 AUDIO
    TITLE "11:cjc040_2711"
    INDEX 01 00:01:56
  TRACK 04 AUDIO
    TITLE "0:"
    INDEX 01 00:03:21
  TRACK 05 AUDIO
    TITLE "10:cjc040_2712"
    INDEX 01 00:04:03
  TRACK 06 AUDIO
    TITLE "0:"
    INDEX 01 00:05:48
  TRACK 07 AUDIO
    TITLE "11:cjc040_2713"
    INDEX 01 00:06:24
  TRACK 08 AUDIO
    TITLE "0:"
    INDEX 01 00:09:24
  TRACK 09 AUDIO
    TITLE "10:cjc040_2714"
    INDEX 01 00:09:71
  TRACK 10 AUDIO
    TITLE "0:"
    INDEX 01 00:11:19
  TRACK 11 AUDIO
    TITLE "11:cjc040_2715"
    INDEX 01 00:11:72
  TRACK 12 AUDIO
    TITLE "0:"
    INDEX 01 00:14:15
  TRACK 13 AUDIO
    TITLE "10:cjc040_2716"
    INDEX 01 00:14:70
  TRACK 14 AUDIO
    TITLE "0:"
    INDEX 01 00:16:36
  TRACK 15 AUDIO
    TITLE "11:cjc040_2717"
    INDEX 01 00:17:10
  TRACK 16 AUDIO
    TITLE "0:"
    INDEX 01 00:18:15
  TRACK 17 AUDIO
    TITLE "10:cjc040_2718"
    INDEX 01 00:18:70
  TRACK 18 AUDIO
    TITLE "0:"
    INDEX 01 00:19:65
  TRACK 19 AUDIO
    TITLE "11:cjc040_2719"
    INDEX 01 00:20:43
  TRACK 20 AUDIO
    TITLE "0:"
    INDEX 01 00:23:24
  TRACK 21 AUDIO
    TITLE "10:cjc040_2720"
    INDEX 01 00:24:00
  TRACK 22 AUDIO
    TITLE "0:"
    INDEX 01 00:25:31
  TRACK 23 AUDIO
    TITLE "11:cjc040_2721"
    INDEX 01 00:26:11
  TRACK 24 AUDIO
    TITLE "0:"
    INDEX 01 00:27:12
  TRACK 25 AUDIO
    TITLE "10:cjc040_2722"
    INDEX 01 00:27:69
  TRACK 26 AUDIO
    TITLE "0:"
    INDEX 01 00:29:19
  TRACK 27 AUDIO
    TITLE "11:cjc040_2723"
    INDEX 01 00:29:74
  TRACK 28 AUDIO
    TITLE "0:"
    INDEX 01 00:32:01
  TRACK 29 AUDIO
    TITLE "10:cjc040_2724"
    INDEX 01 00:32:52
  TRACK 30 AUDIO
    TITLE "0:"
    INDEX 01 00:33:66
  TRACK 31 AUDIO
    TITLE "11:cjc040_2725"
    INDEX 01 00:34:47
  TRACK 32 AUDIO
    TITLE "0:"
    INDEX 01 00:36:64
  TRACK 33 AUDIO
    TITLE "10:cjc040_2726"
    INDEX 01 00:37:46
  TRACK 34 AUDIO
    TITLE "0:"
    INDEX 01 00:38:73
  TRACK 35 AUDIO
    TITLE "11:cjc040_2727"
    INDEX 01 00:39:52
  TRACK 36 AUDIO
    TITLE "0:"
    INDEX 01 00:40:60
  TRACK 37 AUDIO
    TITLE "10:cjc040_2728"
    INDEX 01 00:41:38
  TRACK 38 AUDIO
    TITLE "0:"
    INDEX 01 00:42:68
  TRACK 39 AUDIO
    TITLE "11:cjc040_2729"
    INDEX 01 00:43:42
  TRACK 40 AUDIO
    TITLE "0:"
    INDEX 01 00:44:54
  TRACK 41 AUDIO
    TITLE "10:cjc040_2730"
    INDEX 01 00:45:35
  TRACK 42 AUDIO
    TITLE "0:"
    INDEX 01 00:46:39
  TRACK 43 AUDIO
    TITLE "11:cjc040_2731"
    INDEX 01 00:47:21
  TRACK 44 AUDIO
    TITLE "0:"
    INDEX 01 00:49:27
  TRACK 45 AUDIO
    TITLE "10:cjc040_2732"
    INDEX 01 00:50:11
  TRACK 46 AUDIO
    TITLE "0:"
    INDEX 01 00:51:16
  TRACK 47 AUDIO
    TITLE "11:cjc040_2733"
    INDEX 01 00:51:71
  TRACK 48 AUDIO
    TITLE "0:"
    INDEX 01 00:52:69
  TRACK 49 AUDIO
    TITLE "10:cjc040_2734"
    INDEX 01 00:53:41
  TRACK 50 AUDIO
    TITLE "0:"
    INDEX 01 00:54:60
  TRACK 51 AUDIO
    TITLE "11:cjc040_2735"
    INDEX 01 00:55:40
  TRACK 52 AUDIO
    TITLE "0:"
    INDEX 01 00:57:54
  TRACK 53 AUDIO
    TITLE "10:cjc040_2736"
    INDEX 01 00:58:32
  TRACK 54 AUDIO
    TITLE "0:"
    INDEX 01 00:59:41
  TRACK 55 AUDIO
    TITLE "11:cjc040_2737"
    INDEX 01 01:00:21
  TRACK 56 AUDIO
    TITLE "0:"
    INDEX 01 01:01:27
  TRACK 57 AUDIO
    TITLE "10:cjc040_2738"
    INDEX 01 01:02:10
  TRACK 58 AUDIO
    TITLE "0:"
    INDEX 01 01:03:31
  TRACK 59 AUDIO
    TITLE "11:cjc040_2739"
    INDEX 01 01:04:07
  TRACK 60 AUDIO
    TITLE "0:"
    INDEX 01 01:06:36
  TRACK 61 AUDIO
    TITLE "10:cjc040_2740"
    INDEX 01 01:07:14
  TRACK 62 AUDIO
    TITLE "0:"
    INDEX 01 01:08:27
  TRACK 63 AUDIO
    TITLE "11:cjc040_2741"
    INDEX 01 01:09:10
  TRACK 64 AUDIO
    TITLE "0:"
    INDEX 01 01:11:33
  TRACK 65 AUDIO
    TITLE "10:cjc040_2742"
    INDEX 01 01:12:13
  TRACK 66 AUDIO
    TITLE "0:"
    INDEX 01 01:13:36
  TRACK 67 AUDIO
    TITLE "11:cjc040_2743"
    INDEX 01 01:14:19
  TRACK 68 AUDIO
    TITLE "0:"
    INDEX 01 01:17:30
  TRACK 69 AUDIO
    TITLE "10:cjc040_2744"
    INDEX 01 01:18:02
  TRACK 70 AUDIO
    TITLE "0:"
    INDEX 01 01:19:36
  TRACK 71 AUDIO
    TITLE "11:cjc040_2745"
    INDEX 01 01:20:16
  TRACK 72 AUDIO
    TITLE "0:"
    INDEX 01 01:24:18
